<svg width="100" height="100" viewBox="0 0 100 100" fill="none" xmlns="http://www.w3.org/2000/svg">
<path fill-rule="evenodd" clip-rule="evenodd" d="M18.667 20.8333C17.5624 20.8333 16.667 21.7287 16.667 22.8332V77.1666C16.667 78.2712 17.5624 79.1666 18.667 79.1666H39.667C40.7716 79.1666 41.667 78.2712 41.667 77.1666V22.8333C41.667 21.7287 40.7716 20.8333 39.667 20.8333H18.667ZM60.3337 20.8333C59.2291 20.8333 58.3337 21.7287 58.3337 22.8332V77.1666C58.3337 78.2712 59.2291 79.1666 60.3337 79.1666H81.3337C82.4382 79.1666 83.3337 78.2712 83.3337 77.1666V22.8333C83.3337 21.7287 82.4382 20.8333 81.3337 20.8333H60.3337Z" fill="#FEFCF8"/>
</svg>
