<svg width="49" height="49" viewBox="0 0 49 49" fill="none" xmlns="http://www.w3.org/2000/svg">
<path fill-rule="evenodd" clip-rule="evenodd" d="M5.29109 18.4672L22.9896 10.5334C23.956 10.1002 25.0433 10.1002 26.0098 10.5334L43.7082 18.4672C44.5268 18.8342 44.9294 19.6486 44.916 20.4558V32.667C44.916 33.5127 44.2305 34.1982 43.3848 34.1982C42.5391 34.1982 41.8535 33.5127 41.8535 32.667V23.1979L26.0098 30.3002C25.0433 30.7335 23.956 30.7335 22.9896 30.3002L5.29109 22.3664C3.68031 21.6444 3.68031 19.1893 5.29109 18.4672ZM12.25 35.7917V28.8421L21.7368 33.0948C23.5003 33.8853 25.4991 33.8853 27.2625 33.0948L36.75 28.8418V35.7917C36.75 37.4486 35.4069 38.7917 33.75 38.7917H15.25C13.5931 38.7917 12.25 37.4486 12.25 35.7917Z" fill="#FEFCF8"/>
</svg>
