<svg width="32" height="32" viewBox="0 0 32 32" fill="none" xmlns="http://www.w3.org/2000/svg">
<path fill-rule="evenodd" clip-rule="evenodd" d="M6.0406 4.62615C5.65008 4.23562 5.01691 4.23562 4.62639 4.62615C4.23587 5.01667 4.23587 5.64983 4.62639 6.04036L9.25503 10.669H8.00016C6.5274 10.669 5.3335 11.8624 5.3335 13.3345V18.6654C5.3335 20.1375 6.5274 21.3308 8.00016 21.3308H11.3337C11.7663 21.3308 12.1873 21.4711 12.5334 21.7306L18.4002 26.1287C20.1358 27.4298 22.6032 26.2242 22.6656 24.0796L25.9597 27.3737C26.3502 27.7642 26.9834 27.7642 27.3739 27.3737C27.7645 26.9832 27.7645 26.35 27.3739 25.9595L6.0406 4.62615ZM22.6668 8.00355V18.5857L13.5719 9.49075L18.4002 5.87118C20.1581 4.55331 22.6668 5.80709 22.6668 8.00355Z" fill="#FEFCF8"/>
</svg>
