<svg width="20" height="20" viewBox="0 0 20 20" fill="none" xmlns="http://www.w3.org/2000/svg">
<path d="M8.19642 1.99871C8.93405 0.444767 11.0653 0.444764 11.8029 1.99871L13.0777 4.68433C13.3707 5.3014 13.9369 5.72911 14.5918 5.82806L17.4424 6.25872C19.0918 6.50791 19.7504 8.61533 18.5569 9.82491L16.4942 11.9154C16.0202 12.3957 15.804 13.0877 15.9159 13.766L16.4028 16.7178C16.6845 18.4257 14.9603 19.7282 13.4851 18.9218L10.9354 17.5281C10.3496 17.2079 9.64974 17.2079 9.06392 17.5281L6.51429 18.9218C5.03903 19.7282 3.31481 18.4257 3.59656 16.7178L4.0835 13.766C4.19538 13.0877 3.97911 12.3957 3.50517 11.9154L1.44248 9.82491C0.248968 8.61533 0.907559 6.50791 2.55695 6.25872L5.40752 5.82806C6.06249 5.72911 6.62869 5.30141 6.92161 4.68433L8.19642 1.99871Z" stroke="#A56429" stroke-linejoin="round"/>
</svg>
