<svg width="46" height="47" viewBox="0 0 46 47" fill="none" xmlns="http://www.w3.org/2000/svg">
<path fill-rule="evenodd" clip-rule="evenodd" d="M23 46C35.7025 46 46 35.7025 46 23C46 10.2975 35.7025 0 23 0C10.2975 0 0 10.2975 0 23C0 35.7025 10.2975 46 23 46ZM14.2383 17.3333C14.2383 16.2287 15.1337 15.3333 16.2383 15.3333H18.8097C19.9143 15.3333 20.8097 16.2287 20.8097 17.3333V28.6666C20.8097 29.7712 19.9143 30.6666 18.8097 30.6666H16.2383C15.1337 30.6666 14.2383 29.7712 14.2383 28.6666V17.3333ZM25.1907 17.3333C25.1907 16.2287 26.0861 15.3333 27.1907 15.3333H29.7621C30.8667 15.3333 31.7621 16.2287 31.7621 17.3333V28.6666C31.7621 29.7712 30.8667 30.6666 29.7621 30.6666H27.1907C26.0861 30.6666 25.1907 29.7712 25.1907 28.6666V17.3333Z" fill="#FEFCF8"/>
</svg>
