<svg width="349" height="117" viewBox="0 0 349 117" fill="none" xmlns="http://www.w3.org/2000/svg">
<g clip-path="url(#clip0_329_20394)">
<path d="M320.937 0.00038025H27.7844C26.7159 0.00038025 25.6601 0.00038025 24.5944 0.00623025C23.7022 0.0120803 22.8172 0.0290745 21.9165 0.0433777C19.9598 0.0664905 18.0076 0.239283 16.077 0.560255C14.1492 0.888213 12.2817 1.50651 10.5378 2.39423C8.79603 3.28946 7.20451 4.45272 5.821 5.84181C4.43022 7.22699 3.2709 8.82808 2.38762 10.5835C1.5019 12.3354 0.887735 14.2128 0.566344 16.1507C0.241897 18.0862 0.0673096 20.044 0.0441477 22.0066C0.0171054 22.9034 0.0142497 23.8032 0 24.7001V92.3093C0.0142497 93.2175 0.0171054 94.0973 0.0441477 95.0058C0.0673167 96.9683 0.241904 98.926 0.566344 100.861C0.886847 102.8 1.50105 104.679 2.38762 106.431C3.2705 108.181 4.42998 109.776 5.821 111.153C7.19927 112.549 8.79181 113.713 10.5378 114.601C12.2817 115.491 14.149 116.113 16.077 116.446C18.0079 116.764 19.9599 116.937 21.9165 116.963C22.8172 116.983 23.7022 116.995 24.5944 116.995C25.6601 117 26.7159 117 27.7844 117H320.937C321.984 117 323.049 117 324.096 116.995C324.984 116.995 325.894 116.983 326.782 116.963C328.735 116.939 330.684 116.766 332.61 116.446C334.545 116.111 336.419 115.489 338.171 114.601C339.915 113.712 341.507 112.548 342.884 111.153C344.271 109.77 345.433 108.177 346.327 106.431C347.207 104.678 347.815 102.799 348.131 100.861C348.456 98.9257 348.637 96.9685 348.672 95.0058C348.683 94.0973 348.683 93.2175 348.683 92.3093C348.706 91.2466 348.706 90.1898 348.706 89.1099V27.8936C348.706 26.8224 348.706 25.7598 348.683 24.7001C348.683 23.8032 348.683 22.9034 348.672 22.0064C348.637 20.0437 348.456 18.0863 348.131 16.1506C347.814 14.2138 347.206 12.3366 346.327 10.5834C344.528 7.06483 341.676 4.20075 338.171 2.39397C336.419 1.50841 334.545 0.890283 332.61 0.559991C330.684 0.237606 328.735 0.064753 326.782 0.0429682C325.894 0.0286942 324.984 0.0115538 324.096 0.00585C323.049 0 321.984 0 320.937 0V0.00038025Z" fill="#1F212C"/>
<path d="M24.6085 114.441C23.7207 114.441 22.8543 114.429 21.9734 114.41C20.1486 114.386 18.328 114.226 16.5266 113.932C14.847 113.642 13.2198 113.102 11.6988 112.33C10.1918 111.564 8.8173 110.56 7.62793 109.356C6.42134 108.167 5.4168 106.787 4.65412 105.272C3.88303 103.746 3.34939 102.112 3.07179 100.424C2.77201 98.6111 2.60982 96.7777 2.58661 94.9398C2.56813 94.323 2.54395 92.269 2.54395 92.269V24.6999C2.54395 24.6999 2.56971 22.6775 2.58675 22.0834C2.60897 20.2485 2.77023 18.4179 3.06911 16.6076C3.34723 14.9155 3.88128 13.276 4.65278 11.7459C5.41266 10.2317 6.41162 8.85084 7.61094 7.65691C8.80891 6.45164 10.1878 5.44246 11.6974 4.66618C13.2149 3.89657 14.839 3.36024 16.5153 3.07516C18.3225 2.77847 20.1494 2.61806 21.9806 2.59528L24.61 2.55957H324.082L326.742 2.59672C328.557 2.61836 330.367 2.77734 332.158 3.07229C333.851 3.36095 335.492 3.90102 337.027 4.67475C340.051 6.23918 342.512 8.71425 344.064 11.7531C344.824 13.2726 345.349 14.8987 345.624 16.5761C345.926 18.4013 346.096 20.2463 346.13 22.0962C346.139 22.9246 346.139 23.8144 346.139 24.6999C346.162 25.7968 346.162 26.8408 346.162 27.8934V89.1097C346.162 90.1724 346.162 91.2093 346.139 92.2547C346.139 93.2059 346.139 94.0773 346.128 94.9741C346.094 96.791 345.927 98.603 345.63 100.396C345.358 102.095 344.827 103.743 344.056 105.28C343.288 106.779 342.289 108.147 341.096 109.333C339.906 110.544 338.529 111.554 337.019 112.324C335.488 113.102 333.849 113.644 332.158 113.932C330.357 114.228 328.536 114.387 326.711 114.41C325.857 114.429 324.964 114.441 324.096 114.441L320.937 114.447L24.6085 114.441Z" fill="#F1E6D7"/>
<path d="M72.8412 58.1751C72.8738 55.6363 73.5456 53.147 74.7942 50.9389C76.0428 48.7308 77.8275 46.8755 79.9823 45.5458C78.6134 43.5834 76.8075 41.9684 74.708 40.8292C72.6086 39.6899 70.2734 39.0577 67.8879 38.9828C62.7993 38.4466 57.8661 42.0392 55.273 42.0392C52.6298 42.0392 48.6374 39.036 44.3382 39.1248C41.5574 39.215 38.8472 40.0267 36.4718 41.4808C34.0965 42.9349 32.1368 44.9818 30.7839 47.4221C24.9235 57.607 29.2948 72.5754 34.9088 80.8081C37.7175 84.8394 41.0002 89.3425 45.2955 89.1828C49.4987 89.0078 51.0685 86.4925 56.1421 86.4925C61.1687 86.4925 62.6415 89.1828 67.024 89.0813C71.5342 89.0078 74.3758 85.032 77.0861 80.9626C79.1042 78.0901 80.6572 74.9154 81.6874 71.5561C79.0671 70.4436 76.8309 68.5816 75.2578 66.202C73.6847 63.8225 72.8443 61.0308 72.8412 58.1751Z" fill="#1F212C"/>
<path d="M64.5636 33.5691C67.0228 30.6058 68.2343 26.7971 67.9409 22.9517C64.1839 23.3477 60.7134 25.1501 58.221 27.9997C57.0024 29.3918 56.0691 31.0113 55.4744 32.7656C54.8797 34.52 54.6354 36.3748 54.7552 38.224C56.6344 38.2434 58.4935 37.8346 60.1925 37.0283C61.8915 36.222 63.386 35.0392 64.5636 33.5691Z" fill="#1F212C"/>
<path d="M123.269 79.3834H109.476L106.164 89.2011H100.321L113.386 52.8784H119.456L132.521 89.2011H126.579L123.269 79.3834ZM110.905 74.8531H121.838L116.448 58.9199H116.297L110.905 74.8531Z" fill="#1F212C"/>
<path d="M160.737 75.961C160.737 84.1904 156.349 89.4777 149.727 89.4777C148.049 89.5658 146.381 89.1779 144.913 88.3585C143.445 87.5391 142.236 86.3213 141.426 84.8445H141.3V97.9613H135.885V62.7185H141.127V67.1231H141.226C142.074 65.6534 143.303 64.4419 144.782 63.6175C146.262 62.7931 147.936 62.3867 149.627 62.4414C156.323 62.4414 160.737 67.7544 160.737 75.961ZM155.17 75.961C155.17 70.5995 152.41 67.0746 148.198 67.0746C144.061 67.0746 141.278 70.6737 141.278 75.961C141.278 81.2968 144.061 84.8702 148.198 84.8702C152.41 84.8702 155.17 81.3711 155.17 75.961H155.17Z" fill="#1F212C"/>
<path d="M189.775 75.961C189.775 84.1904 185.386 89.4777 178.764 89.4777C177.086 89.5658 175.418 89.1779 173.95 88.3585C172.482 87.5391 171.273 86.3213 170.463 84.8445H170.337V97.9613H164.922V62.7185H170.164V67.1231H170.263C171.111 65.6534 172.34 64.4419 173.819 63.6175C175.299 62.7931 176.973 62.3867 178.664 62.4414C185.36 62.4414 189.775 67.7544 189.775 75.961ZM184.208 75.961C184.208 70.5995 181.447 67.0746 177.235 67.0746C173.098 67.0746 170.315 70.6737 170.315 75.961C170.315 81.2968 173.098 84.8702 177.235 84.8702C181.447 84.8702 184.208 81.3711 184.208 75.961Z" fill="#1F212C"/>
<path d="M208.965 79.0808C209.366 82.6828 212.852 85.0478 217.616 85.0478C222.18 85.0478 225.464 82.6827 225.464 79.4349C225.464 76.6156 223.484 74.9275 218.794 73.7706L214.104 72.6366C207.459 71.0255 204.374 67.9063 204.374 62.8447C204.374 56.5776 209.815 52.2729 217.539 52.2729C225.188 52.2729 230.43 56.5776 230.606 62.8447H225.14C224.812 59.2198 221.827 57.0318 217.465 57.0318C213.102 57.0318 210.117 59.2456 210.117 62.4676C210.117 65.0356 212.024 66.5466 216.688 67.7034L220.675 68.686C228.099 70.4484 231.181 73.4421 231.181 78.755C231.181 85.5504 225.791 89.8065 217.214 89.8065C209.189 89.8065 203.771 85.6504 203.421 79.0806L208.965 79.0808Z" fill="#1F212C"/>
<path d="M242.875 56.4521V62.7192H247.892V67.0239H242.875V81.6231C242.875 83.8912 243.879 84.9481 246.085 84.9481C246.68 84.9376 247.275 84.8956 247.866 84.8223V89.1012C246.875 89.2872 245.867 89.3714 244.858 89.3526C239.517 89.3526 237.434 87.3388 237.434 82.2029V67.0239H233.598V62.7192H237.434V56.4521H242.875Z" fill="#1F212C"/>
<path d="M250.794 75.9617C250.794 67.6294 255.683 62.3936 263.307 62.3936C270.956 62.3936 275.822 67.6293 275.822 75.9617C275.822 84.3168 270.982 89.5298 263.307 89.5298C255.634 89.5298 250.794 84.3167 250.794 75.9617ZM270.304 75.9617C270.304 70.2459 267.695 66.8725 263.307 66.8725C258.919 66.8725 256.309 70.2716 256.309 75.9617C256.309 81.7002 258.919 85.048 263.307 85.048C267.695 85.048 270.304 81.7002 270.304 75.9617H270.304Z" fill="#1F212C"/>
<path d="M280.287 62.7182H285.452V67.2257H285.577C285.927 65.8179 286.749 64.5738 287.904 63.7025C289.06 62.8312 290.479 62.3858 291.923 62.4411C292.548 62.4389 293.17 62.507 293.779 62.6439V67.7284C292.991 67.4868 292.169 67.3758 291.346 67.3999C290.559 67.3679 289.775 67.5071 289.047 67.8081C288.319 68.109 287.664 68.5645 287.128 69.1434C286.592 69.7222 286.187 70.4106 285.941 71.1614C285.695 71.9121 285.613 72.7075 285.703 73.4927V89.2003H280.287L280.287 62.7182Z" fill="#1F212C"/>
<path d="M318.747 81.4232C318.019 86.2306 313.354 89.5298 307.387 89.5298C299.712 89.5298 294.948 84.3682 294.948 76.0873C294.948 67.7808 299.738 62.3936 307.159 62.3936C314.459 62.3936 319.049 67.4266 319.049 75.4561V77.3185H300.415V77.647C300.329 78.6216 300.45 79.6034 300.772 80.5272C301.093 81.4511 301.606 82.2958 302.277 83.0052C302.948 83.7147 303.762 84.2726 304.665 84.6421C305.568 85.0115 306.538 85.184 307.512 85.148C308.792 85.2683 310.076 84.9708 311.174 84.2997C312.272 83.6286 313.124 82.6197 313.605 81.4232L318.747 81.4232ZM300.44 73.5194H313.63C313.679 72.6431 313.547 71.7661 313.242 70.9436C312.937 70.1211 312.466 69.3707 311.858 68.7396C311.25 68.1085 310.519 67.6102 309.711 67.2761C308.902 66.9421 308.033 66.7793 307.159 66.7982C306.277 66.7929 305.403 66.963 304.587 67.2986C303.771 67.6342 303.029 68.1287 302.405 68.7536C301.78 69.3785 301.285 70.1214 300.948 70.9393C300.611 71.7573 300.438 72.6342 300.44 73.5194V73.5194Z" fill="#1F212C"/>
<path d="M107.057 32.9164H109.382C109.782 32.9664 110.189 32.9327 110.575 32.8173C110.962 32.7019 111.32 32.5074 111.628 32.246C111.936 31.9846 112.187 31.662 112.365 31.2986C112.542 30.9351 112.643 30.5387 112.661 30.1342C112.661 28.5246 111.454 27.4848 109.408 27.4848C108.998 27.4273 108.58 27.4529 108.18 27.5599C107.78 27.667 107.406 27.8535 107.079 28.1083C106.752 28.3631 106.479 28.6811 106.276 29.0435C106.074 29.406 105.945 29.8055 105.899 30.2185H103.346C103.39 29.4688 103.588 28.7362 103.926 28.0664C104.264 27.3965 104.736 26.8037 105.312 26.3249C105.889 25.846 106.557 25.4914 107.276 25.2831C107.995 25.0748 108.748 25.0172 109.49 25.114C112.914 25.114 115.324 27.0378 115.324 29.8071C115.332 30.7349 115.023 31.6373 114.448 32.3638C113.873 33.0903 113.068 33.5969 112.165 33.799V34.0047C113.235 34.0523 114.242 34.523 114.967 35.3138C115.691 36.1047 116.075 37.1514 116.033 38.2251C115.954 38.9969 115.722 39.7452 115.351 40.426C114.98 41.1068 114.477 41.7063 113.872 42.1896C113.268 42.6729 112.573 43.0301 111.829 43.2403C111.084 43.4505 110.306 43.5095 109.539 43.4138C108.77 43.519 107.988 43.4678 107.239 43.2631C106.491 43.0585 105.791 42.7047 105.181 42.2227C104.572 41.7408 104.065 41.1406 103.692 40.458C103.319 39.7753 103.086 39.0242 103.008 38.2494H105.6C105.757 39.919 107.285 40.9959 109.539 40.9959C111.793 40.9959 113.264 39.7863 113.264 38.0809C113.264 36.3514 111.878 35.2859 109.456 35.2859H107.057V32.9164Z" fill="#1F212C"/>
<path d="M118.979 39.2649C118.979 36.8941 120.74 35.5273 123.859 35.333L127.413 35.1274V33.9905C127.413 32.5994 126.5 31.8139 124.727 31.8139C123.281 31.8139 122.282 32.3466 121.992 33.2778H119.485C119.75 31.0155 121.873 29.5645 124.849 29.5645C128.139 29.5645 129.994 31.2083 129.994 33.9905V42.9897H127.499V41.1388H127.294C126.878 41.8027 126.294 42.344 125.601 42.7073C124.909 43.0706 124.133 43.243 123.352 43.2067C122.802 43.2643 122.245 43.2053 121.718 43.0336C121.191 42.8619 120.706 42.5813 120.294 42.2099C119.882 41.8385 119.552 41.3846 119.325 40.8773C119.099 40.3701 118.981 39.8208 118.979 39.2649ZM127.413 38.1395V37.0383L124.209 37.244C122.402 37.3654 121.582 37.9824 121.582 39.1435C121.582 40.3289 122.607 41.0188 124.015 41.0188C124.428 41.0607 124.845 41.0189 125.242 40.8958C125.638 40.7727 126.005 40.5708 126.323 40.3022C126.64 40.0335 126.899 39.7036 127.087 39.3321C127.274 38.9605 127.385 38.555 127.413 38.1395Z" fill="#1F212C"/>
<path d="M136.866 32.0069V42.9899H134.276V29.8188H142.916V32.0067L136.866 32.0069Z" fill="#1F212C"/>
<path d="M158.611 36.4007C158.611 40.5854 156.503 43.2091 153.19 43.2091C152.377 43.2648 151.565 43.0862 150.849 42.6943C150.134 42.3023 149.545 41.7134 149.152 40.9967H148.947V47.3709H146.357V29.8209H148.85V31.9976H149.044C149.444 31.2559 150.041 30.6398 150.768 30.2171C151.495 29.7944 152.324 29.5817 153.164 29.6025C156.502 29.6024 158.611 32.2146 158.611 36.4007ZM155.948 36.4007C155.948 33.6185 154.636 31.9375 152.442 31.9375C150.262 31.9375 148.899 33.6542 148.899 36.4122C148.899 39.1572 150.262 40.8754 152.43 40.8754C154.636 40.8753 155.948 39.1943 155.948 36.4007Z" fill="#1F212C"/>
<path d="M162.059 47.7074V45.4693C162.34 45.5051 162.622 45.5213 162.904 45.5179C163.456 45.5589 164.003 45.394 164.441 45.0547C164.879 44.7155 165.177 44.2258 165.278 43.6797L165.471 43.0385L160.722 29.8188H163.542L166.832 40.2806H167.036L170.315 29.8188H173.061L168.169 43.5341C167.048 46.739 165.807 47.7673 163.132 47.7673C162.916 47.7673 162.301 47.743 162.059 47.7074Z" fill="#1F212C"/>
<path d="M175.079 39.2528H177.657C177.911 40.414 178.995 41.0195 180.512 41.0195C182.236 41.0195 183.295 40.2568 183.295 39.0714C183.295 37.8017 182.344 37.1962 180.512 37.1962H178.548V35.1766H180.477C182.043 35.1766 182.839 34.5725 182.839 33.4714C182.839 32.5045 182.068 31.7661 180.477 31.7661C179.029 31.7661 177.97 32.3831 177.802 33.4228H175.307C175.493 32.2281 176.14 31.1546 177.107 30.4332C178.074 29.7118 179.284 29.4001 180.477 29.5652C183.596 29.5652 185.381 30.9806 185.381 33.2058C185.395 33.8254 185.197 34.4313 184.82 34.9221C184.443 35.4129 183.91 35.7589 183.309 35.9023V36.1079C184.024 36.2005 184.681 36.5534 185.154 37.0997C185.627 37.646 185.884 38.3476 185.876 39.0715C185.876 41.5753 183.753 43.2319 180.512 43.2319C177.646 43.2318 175.318 41.9135 175.079 39.2528Z" fill="#1F212C"/>
<path d="M189.605 42.9899V29.8188H192.172V38.8781H192.377L198.424 29.8189H200.991V42.9899H198.424V33.8822H198.231L192.172 42.99L189.605 42.9899Z" fill="#1F212C"/>
<path d="M215.131 32.0092H210.999V42.9922H208.407V32.0092H204.274V29.8213H215.131V32.0092Z" fill="#1F212C"/>
<path d="M229.081 39.4337C228.729 40.6374 227.966 41.6784 226.926 42.3749C225.886 43.0714 224.636 43.3791 223.393 43.2442C222.528 43.2671 221.669 43.1009 220.875 42.7571C220.081 42.4134 219.371 41.9003 218.794 41.2534C218.218 40.6066 217.788 39.8415 217.535 39.0113C217.283 38.1812 217.213 37.3057 217.331 36.4459C217.216 35.5833 217.287 34.706 217.539 33.8733C217.791 33.0407 218.218 32.2721 218.792 31.6196C219.366 30.9671 220.072 30.446 220.864 30.0914C221.656 29.7369 222.514 29.5573 223.381 29.5647C227.032 29.5647 229.238 32.0685 229.238 36.2044V37.1115H219.972V37.2571C219.931 37.7406 219.991 38.2273 220.149 38.686C220.306 39.1447 220.558 39.5653 220.887 39.9206C221.216 40.276 221.616 40.5583 222.06 40.7494C222.504 40.9405 222.983 41.0362 223.467 41.0304C224.086 41.1047 224.713 40.9925 225.268 40.7082C225.824 40.4239 226.282 39.9802 226.586 39.4336L229.081 39.4337ZM219.972 35.189H226.597C226.63 34.7472 226.57 34.3034 226.422 33.8861C226.273 33.4688 226.04 33.0873 225.736 32.766C225.432 32.4446 225.065 32.1907 224.657 32.0204C224.25 31.8501 223.811 31.7672 223.37 31.777C222.922 31.7709 222.477 31.855 222.062 32.0243C221.647 32.1936 221.27 32.4448 220.953 32.7628C220.637 33.0809 220.387 33.4595 220.218 33.8762C220.05 34.293 219.966 34.7393 219.972 35.189H219.972Z" fill="#1F212C"/>
<path d="M240.061 29.8188H245.977C248.544 29.8188 250.049 31.1242 250.049 33.168C250.053 33.8165 249.835 34.4467 249.432 34.9531C249.028 35.4596 248.463 35.8115 247.832 35.9501V36.1558C248.599 36.2044 249.317 36.5466 249.839 37.1117C250.361 37.6767 250.647 38.4215 250.638 39.1922C250.638 41.4902 248.916 42.9899 246.037 42.9899H240.061V29.8188ZM242.627 31.8141V35.2246H245.194C246.759 35.2246 247.508 34.6205 247.508 33.5065C247.508 32.4796 246.856 31.814 245.482 31.814L242.627 31.8141ZM242.627 37.1356V40.9947H245.698C247.229 40.9947 248.049 40.3163 248.049 39.0709C248.049 37.7527 247.121 37.1357 245.374 37.1357L242.627 37.1356Z" fill="#1F212C"/>
</g>
<defs>
<clipPath id="clip0_329_20394">
<rect width="348.706" height="117" fill="white"/>
</clipPath>
</defs>
</svg>
