<svg width="390" height="117" viewBox="0 0 390 117" fill="none" xmlns="http://www.w3.org/2000/svg">
<g clip-path="url(#clip0_329_20371)">
<g clip-path="url(#clip1_329_20371)">
<path d="M375.238 116.709H14.1271C6.18262 116.709 -0.317383 110.16 -0.317383 102.157V14.8433C-0.317383 6.83958 6.18262 0.291077 14.1271 0.291077H375.238C383.183 0.291077 389.683 6.83958 389.683 14.8433V102.157C389.683 110.16 383.183 116.709 375.238 116.709Z" fill="#F1E6D7"/>
<path d="M375.238 0.291077H14.1271C6.18262 0.291077 -0.317383 6.83958 -0.317383 14.8433V102.157C-0.317383 110.16 6.18262 116.709 14.1271 116.709H375.238C383.183 116.709 389.683 110.16 389.683 102.157V14.8433C389.683 6.83958 383.183 0.291077 375.238 0.291077ZM375.238 2.61943C381.929 2.61943 387.371 8.10388 387.371 14.8433V102.157C387.371 108.897 381.929 114.382 375.238 114.382H14.1271C7.43755 114.382 1.99373 108.897 1.99373 102.157V14.8433C1.99373 8.10388 7.43755 2.61943 14.1271 2.61943H375.238Z" fill="#1F212C"/>
<path d="M59.2421 56.5316L28.4863 89.4189C28.4875 89.4257 28.4898 89.4314 28.4909 89.4382C29.4341 93.0091 32.6716 95.6387 36.5141 95.6387C38.05 95.6387 39.4921 95.2203 40.7288 94.4859L40.8271 94.4279L75.4466 74.302L59.2421 56.5316Z" fill="#EB3131"/>
<path d="M90.3582 50.9317L90.3287 50.9113L75.3826 42.1823L58.5439 57.2778L75.4412 74.2988L90.3085 65.6565C92.9151 64.2388 94.6845 61.4705 94.6845 58.2781C94.6845 55.1087 92.9388 52.354 90.3582 50.9317Z" fill="#F6B60B"/>
<path d="M28.4852 27.0004C28.3003 27.6872 28.2031 28.4067 28.2031 29.1538V87.267C28.2031 88.0127 28.2991 88.7345 28.4863 89.4189L60.3006 57.373L28.4852 27.0004Z" fill="#5778C5"/>
<path d="M59.4691 58.2095L75.3882 42.1762L40.8079 21.9776C39.551 21.2192 38.084 20.7815 36.5142 20.7815C32.6718 20.7815 29.43 23.4156 28.4865 26.991C28.4854 26.9945 28.4854 26.9969 28.4854 27.0001L59.4691 58.2095Z" fill="#3BAD49"/>
</g>
<path d="M308.926 87.6047H314.317V51.2206H308.926V87.6047ZM357.48 64.3269L351.301 80.1013H351.116L344.702 64.3269H338.896L348.513 86.3744L343.03 98.6382H348.654L363.474 64.3269H357.48ZM326.91 83.4721C325.142 83.4721 322.68 82.583 322.68 80.3821C322.68 77.5738 325.748 76.4973 328.395 76.4973C330.766 76.4973 331.879 77.0121 333.32 77.715C332.901 81.0847 330.021 83.4721 326.91 83.4721ZM327.56 63.5309C323.657 63.5309 319.615 65.2635 317.943 69.1018L322.727 71.1141C323.749 69.1018 325.653 68.4458 327.652 68.4458C330.44 68.4458 333.274 70.1318 333.32 73.1275V73.5015C332.344 72.9398 330.255 72.0975 327.698 72.0975C322.542 72.0975 317.29 74.9521 317.29 80.2887C317.29 85.157 321.519 88.2936 326.257 88.2936C329.882 88.2936 331.879 86.6553 333.135 84.7365H333.32V87.5444H338.523V73.5947C338.523 67.1361 333.739 63.5309 327.56 63.5309ZM294.245 68.7561H286.578V56.2845H294.245C298.275 56.2845 300.563 59.6461 300.563 62.5201C300.563 65.3398 298.275 68.7561 294.245 68.7561ZM294.106 51.2206H281.19V87.6047H286.578V73.8199H294.106C300.081 73.8199 305.954 69.4621 305.954 62.5201C305.954 55.5784 300.081 51.2206 294.106 51.2206ZM223.672 83.4788C219.948 83.4788 216.83 80.3376 216.83 76.0231C216.83 71.6633 219.948 68.4743 223.672 68.4743C227.349 68.4743 230.235 71.6633 230.235 76.0231C230.235 80.3376 227.349 83.4788 223.672 83.4788ZM229.862 66.3642H229.676C228.466 64.9111 226.138 63.5982 223.206 63.5982C217.063 63.5982 211.432 69.0369 211.432 76.0231C211.432 82.9628 217.063 88.355 223.206 88.355C226.138 88.355 228.466 87.0418 229.676 85.5424H229.862V87.3238C229.862 92.0603 227.349 94.5921 223.3 94.5921C219.996 94.5921 217.948 92.2 217.109 90.1842L212.409 92.1534C213.759 95.4355 217.343 99.4683 223.3 99.4683C229.63 99.4683 234.982 95.7164 234.982 86.5735V64.3485H229.862V66.3642ZM238.705 87.6047H244.104V51.2194H238.705V87.6047ZM252.062 75.6014C251.923 70.8184 255.739 68.3809 258.485 68.3809C260.627 68.3809 262.441 69.4586 263.045 71.0073L252.062 75.6014ZM268.817 71.4756C267.794 68.7083 264.674 63.5982 258.298 63.5982C251.969 63.5982 246.71 68.6152 246.71 75.9766C246.71 82.9163 251.923 88.355 258.903 88.355C264.536 88.355 267.794 84.8852 269.144 82.8694L264.955 80.0556C263.559 82.1191 261.65 83.4788 258.903 83.4788C256.158 83.4788 254.203 82.2125 252.946 79.7281L269.375 72.8819L268.817 71.4756ZM137.927 67.3963V72.6476H150.4C150.027 75.6014 149.05 77.7581 147.56 79.2587C145.746 81.0879 142.907 83.1037 137.927 83.1037C130.247 83.1037 124.244 76.8678 124.244 69.1312C124.244 61.3947 130.247 55.1579 137.927 55.1579C142.069 55.1579 145.094 56.7994 147.328 58.9094L151.004 55.2056C147.886 52.204 143.744 49.9065 137.927 49.9065C127.408 49.9065 118.565 58.5343 118.565 69.1312C118.565 79.7282 127.408 88.355 137.927 88.355C143.605 88.355 147.887 86.4804 151.237 82.9628C154.681 79.493 155.752 74.6168 155.752 70.6787C155.752 69.4586 155.659 68.3343 155.472 67.3963H137.927ZM169.932 83.4788C166.208 83.4788 162.997 80.3842 162.997 75.9766C162.997 71.5221 166.208 68.4743 169.932 68.4743C173.655 68.4743 176.867 71.5221 176.867 75.9766C176.867 80.3842 173.655 83.4788 169.932 83.4788ZM169.932 63.5982C163.137 63.5982 157.598 68.8026 157.598 75.9766C157.598 83.1037 163.137 88.355 169.932 88.355C176.727 88.355 182.265 83.1037 182.265 75.9766C182.265 68.8026 176.727 63.5982 169.932 63.5982ZM196.837 83.4788C193.115 83.4788 189.903 80.3842 189.903 75.9766C189.903 71.5221 193.115 68.4743 196.837 68.4743C200.56 68.4743 203.772 71.5221 203.772 75.9766C203.772 80.3842 200.56 83.4788 196.837 83.4788ZM196.837 63.5982C190.042 63.5982 184.504 68.8026 184.504 75.9766C184.504 83.1037 190.042 88.355 196.837 88.355C203.632 88.355 209.171 83.1037 209.171 75.9766C209.171 68.8026 203.632 63.5982 196.837 63.5982Z" fill="#1F212C"/>
<path d="M125.656 29.2989C125.69 32.0615 125.141 34.2897 124.012 35.9816H132.775V22.8094H125.656V29.2989ZM121.662 41.833H119.532V35.9816H121.227C122.728 34.6785 123.461 32.4526 123.431 29.2989V20.6642H135.003V35.9816H136.939V41.833H134.808V38.1268H121.662V41.833Z" fill="#1F212C"/>
<path d="M125.657 29.2988L125.368 29.3023L125.371 29.5375C125.369 32.1514 124.828 34.2387 123.772 35.8188L123.47 36.2726H133.064V22.5184H125.368V29.3012V29.3023L125.657 29.2988H125.946V23.1005H132.487V35.6905H124.013V35.9815L124.252 36.143C125.389 34.4399 125.948 32.2297 125.948 29.5375L125.946 29.2953L125.657 29.2988H125.946H125.657ZM121.662 41.833V41.5419H119.822V36.2726H121.228H121.335L121.416 36.2021C122.978 34.8447 123.722 32.5833 123.722 29.4898L123.721 29.2965V29.2988V20.9552H134.715V36.2726H136.651V41.5419H135.098V38.1268V37.8358H121.374V41.833H121.662V41.5419V41.833H121.951V38.4179H134.52V41.833V42.124H136.94H137.229V35.6905H135.293V20.3731H123.143V29.3V29.3012L123.144 29.4898C123.143 32.5015 122.418 34.5673 121.039 35.7597L121.228 35.9815V35.6905H119.533H119.244V42.124H121.662H121.951V41.833H121.662Z" fill="#1F212C"/>
<path d="M143.244 34.4084C144.528 35.7169 146.097 36.3706 147.953 36.3706C149.809 36.3706 151.38 35.7169 152.661 34.4084C153.945 33.0999 154.588 31.4272 154.588 29.3957C154.588 27.3643 153.945 25.6916 152.661 24.3831C151.38 23.0745 149.809 22.4209 147.953 22.4209C146.097 22.4209 144.528 23.0745 143.244 24.3831C141.963 25.6916 141.32 27.3643 141.32 29.3957C141.32 31.4272 141.963 33.0999 143.244 34.4084ZM154.308 35.8703C152.604 37.6358 150.486 38.5171 147.953 38.5171C145.419 38.5171 143.3 37.6358 141.599 35.8703C139.896 34.1069 139.046 31.9482 139.046 29.3957C139.046 26.8433 139.896 24.6843 141.599 22.9212C143.3 21.1554 145.419 20.2732 147.953 20.2732C150.471 20.2732 152.585 21.16 154.297 22.9325C156.007 24.705 156.862 26.8593 156.862 29.3957C156.862 31.9482 156.01 34.1069 154.308 35.8703Z" fill="#1F212C"/>
<path d="M143.244 34.4084L143.038 34.613C144.369 35.9739 146.028 36.6651 147.953 36.6616C149.876 36.6651 151.539 35.9739 152.866 34.613C154.205 33.2509 154.879 31.4886 154.877 29.3957C154.879 27.3028 154.205 25.5405 152.866 24.1784C151.539 22.8175 149.876 22.1263 147.953 22.1298C146.028 22.1263 144.369 22.8175 143.038 24.1784C141.702 25.5405 141.028 27.3028 141.031 29.3957C141.028 31.4886 141.702 33.2509 143.038 34.613L143.244 34.4084L143.45 34.2038C142.224 32.9473 141.612 31.367 141.608 29.3957C141.612 27.4245 142.224 25.8441 143.45 24.5877H143.449C144.686 23.3315 146.163 22.7154 147.953 22.7119C149.741 22.7154 151.222 23.3315 152.455 24.5877L152.46 24.5923L152.455 24.5877C153.684 25.8441 154.296 27.4245 154.299 29.3957C154.296 31.367 153.684 32.9473 152.455 34.2038C151.222 35.4599 149.741 36.0761 147.953 36.0796C146.163 36.0761 144.686 35.4599 143.449 34.2038L143.244 34.4084ZM154.308 35.8703L154.102 35.668C152.446 37.3779 150.42 38.2225 147.953 38.226C145.485 38.2225 143.459 37.3779 141.806 35.668C140.154 33.9523 139.338 31.8833 139.335 29.3957C139.338 26.9082 140.154 24.8391 141.806 23.1234C143.459 21.4135 145.485 20.5677 147.953 20.5643C150.405 20.5677 152.426 21.417 154.09 23.1359C155.749 24.8595 156.57 26.9253 156.573 29.3957C156.57 31.8833 155.752 33.9523 154.102 35.668L154.308 35.8703L154.516 36.0726C156.267 34.2605 157.153 32.0128 157.151 29.3957C157.153 26.7935 156.265 24.5504 154.504 22.7302C152.744 20.903 150.539 19.979 147.953 19.9822C145.353 19.979 143.141 20.8987 141.392 22.7189V22.7177C139.637 24.5309 138.755 26.7786 138.757 29.3957C138.755 32.0128 139.637 34.2605 141.392 36.0737V36.0726C143.141 37.8928 145.353 38.8104 147.953 38.8081C150.552 38.8104 152.763 37.8928 154.516 36.0726L154.308 35.8703Z" fill="#1F212C"/>
<path d="M168.074 38.5171C165.523 38.5171 163.385 37.6474 161.658 35.9067C159.928 34.1674 159.068 31.9968 159.068 29.3957C159.068 26.7944 159.928 24.6241 161.658 22.8848C163.385 21.144 165.523 20.2732 168.074 20.2732C170.686 20.2732 172.81 21.225 174.44 23.1269L172.889 24.6401C171.713 23.1598 170.105 22.4209 168.074 22.4209C166.183 22.4209 164.589 23.0632 163.291 24.3479C161.991 25.6325 161.342 27.3154 161.342 29.3957C161.342 31.4761 161.991 33.1601 163.291 34.4436C164.589 35.7283 166.183 36.3706 168.074 36.3706C170.156 36.3706 171.93 35.5257 173.4 33.8353L174.948 35.3951C174.156 36.3546 173.165 37.1151 171.969 37.6745C170.776 38.2362 169.475 38.5171 168.074 38.5171Z" fill="#1F212C"/>
<path d="M168.073 38.5171V38.226C165.588 38.2225 163.539 37.3869 161.862 35.7009C160.187 34.0126 159.359 31.9322 159.357 29.3957C159.359 26.8593 160.187 24.7789 161.862 23.0905C163.539 21.4033 165.588 20.5678 168.073 20.5643C170.617 20.5689 172.639 21.4761 174.221 23.3167L174.44 23.1269L174.24 22.9176L172.688 24.432L172.889 24.64L173.114 24.4581C171.889 22.9098 170.173 22.1254 168.073 22.1298C166.118 22.1275 164.435 22.8041 163.089 24.1397C161.729 25.4803 161.05 27.256 161.053 29.3957C161.05 31.5355 161.729 33.3135 163.089 34.6517C164.435 35.9873 166.118 36.664 168.073 36.6616C170.234 36.6651 172.107 35.7713 173.616 34.0274L173.4 33.8353L173.195 34.0411L174.744 35.6008L174.948 35.395L174.726 35.2099C173.961 36.1351 173.008 36.8674 171.847 37.4108C170.693 37.9542 169.438 38.2248 168.073 38.226V38.5171V38.8081C169.513 38.8081 170.859 38.5194 172.091 37.9385C173.323 37.3631 174.35 36.5752 175.17 35.5816L175.338 35.3781L173.604 33.6295L173.385 33.4089L173.182 33.6432C171.753 35.2815 170.077 36.0761 168.073 36.0796C166.248 36.0761 164.743 35.4689 163.494 34.2355H163.493C162.252 33.0076 161.633 31.417 161.631 29.3957C161.633 27.3744 162.252 25.7862 163.493 24.5559H163.494C164.743 23.3225 166.248 22.7154 168.073 22.7119C170.036 22.7165 171.535 23.4101 172.663 24.822L172.861 25.0722L174.641 23.3362L174.837 23.145L174.659 22.9371C172.981 20.9726 170.755 19.979 168.073 19.9822C165.458 19.9798 163.229 20.8862 161.454 22.679C159.67 24.4683 158.776 26.7309 158.779 29.3957C158.776 32.0605 159.67 34.3231 161.454 36.1136C163.229 37.9053 165.458 38.8104 168.073 38.8081V38.5171Z" fill="#1F212C"/>
<path d="M183.956 38.127H181.728V22.8096H176.887V20.6643H188.798V22.8096H183.956V38.127Z" fill="#1F212C"/>
<path d="M183.957 38.1269V37.8359H182.018V22.5185H177.176V20.9553H188.51V22.5185H183.668V38.1269H183.957V37.8359V38.1269H184.246V23.1006H189.087V20.6642V20.3732H176.599V22.8095V23.1006H181.44V38.418H183.957H184.246V38.1269H183.957Z" fill="#1F212C"/>
<path d="M204.09 20.6644L197.531 35.3951C196.625 37.4769 195.281 38.5171 193.489 38.5171C192.956 38.5171 192.383 38.3876 191.768 38.1271L192.349 36.0534C192.721 36.2659 193.108 36.3706 193.511 36.3706C194.028 36.3706 194.429 36.2694 194.711 36.0671C194.993 35.8636 195.255 35.4917 195.498 34.9562L196.127 33.5647L190.293 20.6644H192.908L197.193 30.6883H197.288L201.474 20.6644H204.09Z" fill="#1F212C"/>
<path d="M204.09 20.6643L203.826 20.545L197.267 35.2768L197.266 35.2791C196.374 37.2969 195.157 38.2158 193.489 38.226C193.002 38.226 192.467 38.1078 191.88 37.8587L191.768 38.127L192.047 38.2065L192.627 36.1328L192.349 36.0533L192.208 36.3068C192.619 36.5411 193.058 36.6628 193.511 36.6616C194.063 36.6616 194.526 36.556 194.879 36.3033C195.227 36.0498 195.505 35.6371 195.76 35.0777L196.39 33.6863L196.444 33.5646L190.742 20.9554H192.718L197.002 30.9792H197.288H197.48L201.666 20.9554H204.09V20.6643L203.826 20.545L204.09 20.6643V20.3733H201.474H201.282L197.021 30.5759L197.288 30.6882V30.3972H197.193V30.6882L197.458 30.5735L193.098 20.3733H190.293H189.844L195.809 33.5646L195.235 34.8356C195.006 35.3461 194.759 35.6758 194.543 35.8292C194.332 35.9829 193.992 36.0807 193.511 36.0795C193.158 36.0795 192.825 35.9896 192.491 35.7998L192.171 35.6179L191.49 38.0476L191.42 38.2952L191.656 38.3954C192.298 38.6669 192.909 38.8081 193.489 38.8081C195.404 38.8171 196.875 37.6552 197.795 35.5123L197.794 35.5143L204.535 20.3733H204.09V20.6643Z" fill="#1F212C"/>
<path d="M206.612 38.127V20.6643H219.153V38.127H216.924V22.8096H208.838V38.127H206.612Z" fill="#1F212C"/>
<path d="M206.612 38.1269H206.901V20.9553H218.863V37.8359H217.213V22.5185H208.549V37.8359H206.612V38.1269H206.901H206.612V38.418H208.837H209.126V23.1006H216.635V38.418H219.153H219.442V20.3732H206.323V38.418H206.612V38.1269Z" fill="#1F212C"/>
<path d="M223.122 38.127V20.6643H225.349V28.1508H234.015V20.6643H236.244V38.127H234.015V30.2484H225.349V38.127H223.122Z" fill="#1F212C"/>
<path d="M223.122 38.1269H223.411V20.9553H225.059V28.4418H234.304V20.9553H235.955V37.8359H234.304V29.9573H225.059V37.8359H223.122V38.1269H223.411H223.122V38.418H225.348H225.637V30.5394H233.726V38.418H236.244H236.533V20.3732H234.015H233.726V27.8597H225.637V20.3732H223.122H222.833V38.418H223.122V38.1269Z" fill="#1F212C"/>
<path d="M243.324 34.4084C244.608 35.7169 246.177 36.3706 248.033 36.3706C249.889 36.3706 251.46 35.7169 252.741 34.4084C254.025 33.0999 254.668 31.4272 254.668 29.3957C254.668 27.3643 254.025 25.6916 252.741 24.3831C251.46 23.0745 249.889 22.4209 248.033 22.4209C246.177 22.4209 244.608 23.0745 243.324 24.3831C242.044 25.6916 241.4 27.3643 241.4 29.3957C241.4 31.4272 242.044 33.0999 243.324 34.4084ZM254.389 35.8703C252.686 37.6358 250.567 38.5171 248.033 38.5171C245.5 38.5171 243.382 37.6358 241.68 35.8703C239.976 34.1069 239.126 31.9482 239.126 29.3957C239.126 26.8433 239.976 24.6843 241.68 22.9212C243.382 21.1554 245.5 20.2732 248.033 20.2732C250.553 20.2732 252.665 21.16 254.377 22.9325C256.087 24.705 256.942 26.8593 256.942 29.3957C256.942 31.9482 256.09 34.1069 254.389 35.8703Z" fill="#1F212C"/>
<path d="M243.324 34.4084L243.119 34.613C244.45 35.9739 246.109 36.6651 248.033 36.6616C249.957 36.6651 251.619 35.9739 252.947 34.613C254.286 33.2509 254.96 31.4886 254.957 29.3957C254.96 27.3028 254.286 25.5405 252.947 24.1784C251.619 22.8175 249.957 22.1263 248.033 22.1298C246.109 22.1263 244.45 22.8175 243.119 24.1784C241.782 25.5405 241.108 27.3028 241.111 29.3957C241.108 31.4886 241.782 33.2509 243.119 34.613L243.324 34.4084L243.53 34.2038C242.305 32.9473 241.692 31.367 241.689 29.3957C241.692 27.4245 242.305 25.8441 243.53 24.5877C244.766 23.3315 246.244 22.7154 248.033 22.7119C249.822 22.7154 251.302 23.3315 252.535 24.5877L252.544 24.597L252.535 24.5877C253.764 25.8441 254.377 27.4245 254.379 29.3957C254.377 31.367 253.764 32.9473 252.535 34.2038C251.302 35.4599 249.822 36.0761 248.033 36.0796C246.244 36.0761 244.766 35.4599 243.53 34.2038L243.324 34.4084ZM254.388 35.8703L254.182 35.668C252.527 37.3779 250.5 38.2225 248.033 38.226C245.566 38.2225 243.539 37.3779 241.887 35.668L241.878 35.659L241.887 35.668C240.234 33.9523 239.418 31.8833 239.415 29.3957C239.418 26.9082 240.234 24.8391 241.887 23.1234C243.539 21.4135 245.566 20.5677 248.033 20.5643C250.485 20.5677 252.506 21.417 254.171 23.1359C255.83 24.8595 256.651 26.9253 256.653 29.3957C256.651 31.8833 255.832 33.9523 254.182 35.668L254.388 35.8703L254.596 36.0726C256.349 34.2605 257.233 32.0128 257.231 29.3957C257.233 26.7935 256.345 24.5504 254.585 22.7302C252.824 20.903 250.619 19.979 248.033 19.9822C245.433 19.979 243.222 20.8987 241.472 22.7189V22.7177C239.717 24.5309 238.835 26.7786 238.837 29.3957C238.835 32.0128 239.717 34.2605 241.472 36.0737V36.0726C243.222 37.8928 245.433 38.8104 248.033 38.8081C250.633 38.8104 252.844 37.8928 254.596 36.0726L254.388 35.8703Z" fill="#1F212C"/>
<path d="M268.274 35.9817H272.755C273.61 35.9817 274.303 35.6804 274.838 35.0768C275.369 34.4775 275.635 33.818 275.635 33.1018C275.635 32.3867 275.361 31.733 274.812 31.1395C274.266 30.5461 273.544 30.2484 272.657 30.2484H268.274V35.9817ZM268.274 28.1508H272.319C273.159 28.1508 273.832 27.8723 274.341 27.3094C274.849 26.7488 275.104 26.1362 275.104 25.4688C275.104 24.8026 274.858 24.1908 274.364 23.6408C273.873 23.0869 273.223 22.8096 272.417 22.8096H268.274V28.1508ZM266.05 38.127V20.6643H272.319C273.674 20.6643 274.849 21.1168 275.84 22.017C276.834 22.921 277.331 24.0543 277.331 25.4199C277.331 26.2485 277.117 26.9808 276.687 27.6153C276.262 28.2495 275.693 28.7294 274.982 29.0545V29.1511C275.834 29.4433 276.539 29.948 277.088 30.6631C277.634 31.3794 277.912 32.2094 277.912 33.1518C277.912 34.582 277.392 35.7689 276.349 36.7116C275.309 37.6552 274.078 38.127 272.657 38.127H266.05Z" fill="#1F212C"/>
<path d="M268.274 35.9816V36.2727H272.755C273.676 36.2762 274.471 35.9351 275.051 35.2709C275.623 34.6309 275.927 33.8919 275.924 33.1017C275.927 32.3107 275.612 31.5749 275.023 30.9407C274.425 30.2867 273.607 29.9538 272.657 29.9573H267.985V36.2727H268.274V35.9816H268.563V30.5394H272.657C273.483 30.5426 274.104 30.8066 274.601 31.3374C275.109 31.8922 275.343 32.4641 275.346 33.1017C275.343 33.7441 275.115 34.3241 274.621 34.8832C274.139 35.4246 273.543 35.6859 272.755 35.6906H268.274V35.9816H268.563H268.274ZM268.274 28.1508V28.4418H272.319C273.22 28.445 273.994 28.1313 274.555 27.5049V27.5061C275.101 26.9057 275.392 26.2121 275.392 25.4688C275.392 24.7298 275.112 24.0386 274.578 23.4452V23.4463C274.037 22.8299 273.286 22.515 272.417 22.5185H267.985V28.4418H268.274V28.1508H268.563V23.1006H272.417C273.159 23.1052 273.708 23.3439 274.147 23.834L274.15 23.836L274.147 23.8352C274.601 24.3445 274.812 24.8765 274.815 25.4688C274.812 26.0587 274.595 26.5931 274.127 27.1126V27.1138C273.671 27.6129 273.096 27.8562 272.319 27.8597H268.274V28.1508H268.563H268.274ZM266.05 38.1269H266.339V20.9553H272.319C273.61 20.9576 274.702 21.3782 275.647 22.2333C276.585 23.0904 277.039 24.1262 277.042 25.4199C277.042 26.1987 276.843 26.8661 276.45 27.4514C276.051 28.0428 275.528 28.4837 274.861 28.7896L274.693 28.867V29.1511V29.3592L274.887 29.4261C275.693 29.7038 276.343 30.1698 276.86 30.8418L276.863 30.845L276.86 30.8406C277.368 31.5091 277.623 32.2661 277.623 33.1518C277.62 34.5116 277.14 35.5995 276.155 36.4956C275.161 37.3926 274.014 37.8335 272.657 37.8359H266.05V38.1269H266.339H266.05V38.418H272.657C274.141 38.4203 275.453 37.9177 276.542 36.9275C277.64 35.9394 278.203 34.6536 278.2 33.1518C278.203 32.1526 277.903 31.2498 277.316 30.4858L277.313 30.4823L277.316 30.4847C276.736 29.7277 275.979 29.184 275.075 28.8761L274.982 29.1511H275.271V29.0545H274.982L275.101 29.3193C275.855 28.975 276.473 28.4575 276.926 27.7777V27.7788C277.389 27.0957 277.62 26.2986 277.62 25.4199C277.623 23.9839 277.085 22.7516 276.034 21.8011L276.028 21.7955L276.034 21.8011C274.994 20.854 273.737 20.3709 272.319 20.3732H265.761V38.418H266.05V38.1269Z" fill="#1F212C"/>
</g>
<defs>
<clipPath id="clip0_329_20371">
<rect width="390" height="117" fill="white"/>
</clipPath>
<clipPath id="clip1_329_20371">
<rect width="390.867" height="117" fill="white" transform="translate(-0.606445)"/>
</clipPath>
</defs>
</svg>
