<svg width="98" height="42" viewBox="0 0 98 42" fill="none" xmlns="http://www.w3.org/2000/svg">
<path d="M0 16.7254V13.3057H1.73146L5.3203 0H12.0573L15.6461 13.3057H17.3776V16.7254H0ZM5.16289 13.3368H12.2461L8.72026 0.15544L5.16289 13.3368Z" fill="#FEFCF8"/>
<path d="M19.3925 5.12936C19.8333 4.10346 20.4314 3.23299 21.2184 2.48688C21.974 1.74076 22.8869 1.15009 23.8943 0.714854C24.9332 0.279621 26.0351 0.0620117 27.1999 0.0620117C28.3647 0.0620117 29.4665 0.279621 30.5054 0.714854C31.5442 1.15009 32.4257 1.74076 33.1813 2.48688C33.9368 3.23299 34.5349 4.10346 34.9757 5.12936C35.4164 6.15527 35.6368 7.24335 35.6368 8.39361C35.6368 9.54387 35.4164 10.632 34.9757 11.6579C34.5349 12.6838 33.9368 13.5542 33.1813 14.3003C32.4257 15.0465 31.5442 15.6682 30.5054 16.1035C29.4665 16.5387 28.3647 16.7563 27.1999 16.7563C26.0351 16.7563 24.9332 16.5387 23.8943 16.1035C22.8555 15.6682 21.974 15.0775 21.2184 14.3003C20.4629 13.5542 19.8333 12.6527 19.3925 11.6579C18.9518 10.632 18.7314 9.54387 18.7314 8.39361C18.7314 7.21227 18.9518 6.12418 19.3925 5.12936ZM22.4777 10.6009C22.7295 11.1605 23.0444 11.6579 23.4536 12.062C23.8629 12.4661 24.3666 12.8081 24.9332 13.0257C25.4999 13.2744 26.098 13.3677 26.7591 13.3677C27.5147 13.3677 28.2072 13.2123 28.8684 12.9325C29.5295 12.6527 30.0961 12.2485 30.5998 11.7511C31.1035 11.2537 31.4813 10.663 31.7646 10.0413C32.0479 9.38843 32.1739 8.7045 32.1739 7.95838C32.1739 7.33662 32.0794 6.74594 31.8591 6.18636C31.6387 5.62677 31.3554 5.12937 30.9776 4.72522C30.5998 4.32108 30.1276 3.97911 29.5609 3.76149C28.9943 3.51279 28.3961 3.41952 27.7036 3.41952C26.948 3.41952 26.2554 3.57496 25.5628 3.85475C24.9017 4.13454 24.3036 4.53869 23.7999 5.0361C23.2962 5.53351 22.8869 6.12419 22.5721 6.74595C22.2573 7.3988 22.0999 8.08273 22.0999 8.82884C22.1314 9.45061 22.2573 10.0413 22.4777 10.6009Z" fill="#FEFCF8"/>
<path d="M37.0215 16.7254L41.4918 0H50.7158V3.3886H43.9788L43.5066 5.09844C43.6955 5.06736 43.9158 5.00518 44.1362 5.00518C44.3566 4.97409 44.5455 4.97409 44.7658 4.97409C45.5843 4.97409 46.3714 5.12953 47.0954 5.44041C47.8195 5.7513 48.4491 6.18653 48.9843 6.71503C49.5195 7.24352 49.9602 7.86529 50.2435 8.58031C50.5583 9.29534 50.7158 10.0414 50.7158 10.8497C50.7158 11.658 50.5583 12.4041 50.2435 13.1192C49.9287 13.8342 49.5195 14.456 48.9843 14.9845C48.4491 15.513 47.8195 15.9482 47.0954 16.2591C46.3714 16.5699 45.5843 16.7254 44.7658 16.7254C44.0103 16.7254 43.2862 16.601 42.5936 16.3212C41.9011 16.0415 41.3344 15.6995 40.7992 15.2332L40.4214 16.7254H37.0215ZM42.9399 12.715C43.3492 13.1503 43.8529 13.3679 44.4825 13.3679C44.8288 13.3679 45.1751 13.2746 45.5214 13.1192C45.8362 12.9637 46.151 12.7461 46.4029 12.4974C46.6547 12.2487 46.8751 11.9378 47.001 11.5958C47.1584 11.2539 47.2214 10.9119 47.2214 10.5389C47.2214 9.94818 47.0325 9.41969 46.6547 8.98445C46.2769 8.54922 45.7417 8.3316 45.1121 8.3316C44.7658 8.3316 44.3881 8.42487 44.0732 8.58031C43.727 8.73575 43.4436 8.92228 43.1918 9.17098C42.9399 9.41969 42.7196 9.69948 42.5936 10.0414C42.4362 10.3834 42.3733 10.7254 42.3733 11.0984C42.3103 11.7513 42.5307 12.2798 42.9399 12.715Z" fill="#FEFCF8"/>
<path d="M55.8162 16.7254H52.3848L56.8551 0H60.255L60.1921 0.310881C60.8532 0.124352 61.5458 0.03109 62.1754 0.03109C63.1198 0.03109 64.0328 0.217613 64.8513 0.559582C65.7013 0.901551 66.4253 1.39896 67.0549 2.02073C67.6846 2.64249 68.1883 3.35751 68.5346 4.19689C68.8808 5.03627 69.0697 5.93783 69.0697 6.90156C69.0697 7.8342 68.8808 8.73575 68.5346 9.54404C68.1883 10.3834 67.6846 11.0984 67.0549 11.7202C66.4253 12.342 65.6698 12.8394 64.8513 13.1813C64.0013 13.5233 63.1198 13.7098 62.1754 13.7098C61.168 13.7098 60.255 13.5233 59.405 13.1192C58.5551 12.715 57.7995 12.2176 57.1699 11.5648L55.8162 16.7254ZM61.0106 3.73057C60.5698 3.9171 60.1606 4.19689 59.8143 4.53886C59.468 4.88083 59.2162 5.25388 59.0273 5.7202C58.8384 6.15544 58.7439 6.65285 58.7439 7.15026C58.7439 8.0829 59.0273 8.8601 59.6254 9.45078C60.2236 10.0414 60.9791 10.3523 61.892 10.3523C62.3957 10.3523 62.8994 10.2591 63.3717 10.0414C63.8439 9.85492 64.2216 9.57513 64.5679 9.23316C64.9142 8.8912 65.1661 8.51813 65.3864 8.05181C65.5753 7.58549 65.7013 7.11917 65.7013 6.59068C65.7013 5.72021 65.4179 4.97409 64.8513 4.35233C64.2846 3.73057 63.4976 3.41969 62.5217 3.41969C61.955 3.45078 61.4513 3.54404 61.0106 3.73057Z" fill="#FEFCF8"/>
<path d="M69.416 16.7254L73.9178 0H80.6548L85.1251 16.7254H81.7251L80.34 11.658H74.1697L72.816 16.7254H69.416ZM77.3178 0.18653L75.1141 8.23834H79.49L77.3178 0.18653Z" fill="#FEFCF8"/>
<path d="M97.7175 16.7255H94.286V11.223C93.4675 11.596 92.6175 11.7825 91.7361 11.7825C91.5157 11.7825 91.3268 11.7825 91.2324 11.7514L89.9102 16.7255H86.4787L88.1157 10.5701C87.3917 10.0416 86.825 9.35767 86.4158 8.54938C86.0065 7.74109 85.7861 6.83954 85.7861 5.90689C85.7861 5.0986 85.9435 4.35249 86.2583 3.63747C86.5732 2.92244 87.0139 2.30068 87.5491 1.77218C88.0843 1.24369 88.7139 0.808452 89.4379 0.497571C90.162 0.18669 90.9176 0.03125 91.7361 0.03125C92.6175 0.03125 93.4675 0.217775 94.286 0.590832V0.03125H97.7175V16.7255ZM92.5231 8.20741C92.8379 8.08306 93.1212 7.89653 93.3731 7.64783C93.6249 7.39912 93.8138 7.15042 93.9712 6.83954C94.1286 6.52866 94.2231 6.18668 94.2545 5.84472V5.65819C94.2545 5.03643 94.0342 4.50793 93.6249 4.0727C93.2157 3.63747 92.649 3.41985 91.9879 3.41985C91.2009 3.41985 90.5398 3.69964 90.0361 4.22814C89.5324 4.75664 89.2491 5.3784 89.2491 6.09343C89.2491 6.74627 89.4694 7.30586 89.8787 7.77218C90.3194 8.20741 90.8546 8.42503 91.5157 8.42503C91.862 8.42503 92.2083 8.36285 92.5231 8.20741Z" fill="#FEFCF8"/>
<path d="M15.0162 32.1455V19.8968H19.1087V32.1144H21.3124V19.8968H25.4049V36.187H8.68848V19.8657H12.781V32.1144H15.0162V32.1455ZM9.19218 35.7206H24.9642V20.3631H21.7846V32.5807H18.6365V20.3631H15.4569V32.5807H12.3403V20.332H9.19218V35.7206Z" fill="#FEFCF8"/>
<path d="M36.8015 36.1555L34.7552 28.539H32.646V36.1866H28.585V19.8965H32.646V24.1556L33.8108 19.8965H37.9034L35.8256 27.6063H38.6274L40.9255 36.1555H36.8015ZM32.1738 28.0726H35.133L37.1793 35.6892H40.2959L38.2496 28.0726H35.2275L37.2737 20.3628H34.1571L32.1738 27.6996V20.3628H29.0257V35.7203H32.1738V28.0726Z" fill="#FEFCF8"/>
<path d="M41.5234 24.8702C41.9641 23.8754 42.5623 23.0361 43.2863 22.2899C44.0419 21.5438 44.8919 20.9842 45.8993 20.549C46.9067 20.1449 47.977 19.9272 49.1103 19.9272C50.2437 19.9272 51.314 20.1449 52.3214 20.549C53.3288 20.9842 54.1788 21.5438 54.9343 22.2899C55.6899 23.0361 56.2565 23.8754 56.6973 24.8702C57.138 25.8651 57.3269 26.9221 57.3269 28.0412C57.3269 29.1604 57.1065 30.2174 56.6973 31.2122C56.2565 32.207 55.6899 33.0464 54.9343 33.7925C54.1788 34.5386 53.3288 35.0982 52.3214 35.5335C51.314 35.9687 50.2437 36.1863 49.1103 36.1863C47.977 36.1863 46.9067 35.9687 45.8993 35.5335C44.8919 35.0982 44.0419 34.5076 43.2863 33.7925C42.5308 33.0464 41.9641 32.207 41.5234 31.2122C41.0827 30.2174 40.8623 29.1604 40.8623 28.0412C40.8938 26.9221 41.1142 25.8651 41.5234 24.8702ZM52.164 35.1293C53.1084 34.7252 53.9269 34.1967 54.6195 33.4817C55.3121 32.7977 55.8788 31.9583 56.2565 31.0257C56.6658 30.093 56.8547 29.0982 56.8547 28.0412C56.8547 26.9842 56.6658 25.9894 56.2565 25.0568C55.8473 24.1241 55.3121 23.3158 54.6195 22.6319C53.9269 21.948 53.1084 21.3884 52.164 21.0153C51.2196 20.6112 50.2122 20.4247 49.1418 20.4247C48.0715 20.4247 47.0641 20.6112 46.1196 21.0153C45.1752 21.4195 44.3567 21.948 43.6326 22.6319C42.9401 23.3158 42.3734 24.1241 41.9641 25.0568C41.5549 25.9894 41.366 26.9842 41.366 28.0412C41.366 29.0982 41.5549 30.093 41.9641 31.0257C42.3734 31.9583 42.9086 32.7666 43.6326 33.4817C44.3252 34.1656 45.1752 34.7252 46.1196 35.1293C47.0641 35.5335 48.0715 35.72 49.1418 35.72C50.2122 35.72 51.2196 35.5335 52.164 35.1293ZM44.8919 26.549C45.1752 25.9583 45.553 25.4298 46.0252 24.9635C46.4974 24.4972 47.0326 24.1241 47.6622 23.8754C48.2918 23.5956 48.9215 23.4713 49.614 23.4713C50.2437 23.4713 50.8103 23.5645 51.314 23.7822C51.8177 23.9998 52.2584 24.2796 52.6047 24.6837C52.951 25.0568 53.2344 25.5231 53.4233 26.0205C53.6121 26.5179 53.7066 27.0775 53.7066 27.6371C53.7066 28.321 53.5807 28.9428 53.3288 29.5335C53.077 30.1241 52.6992 30.6526 52.2584 31.119C51.8177 31.5853 51.2825 31.9583 50.6844 32.207C50.0863 32.4868 49.4252 32.6112 48.7641 32.6112C48.1659 32.6112 47.5993 32.5179 47.0956 32.3003C46.5919 32.0827 46.1196 31.8029 45.7419 31.3987C45.3641 31.0257 45.0493 30.5594 44.8289 30.062C44.6086 29.5646 44.5141 29.005 44.5141 28.4454C44.4511 27.7614 44.6085 27.1397 44.8919 26.549ZM45.2067 29.9065C45.3956 30.3728 45.6789 30.7459 46.0252 31.0879C46.3715 31.4298 46.7807 31.6785 47.2215 31.8651C47.6622 32.0516 48.1659 32.1449 48.7011 32.1449C49.3307 32.1449 49.8974 32.0205 50.4325 31.7718C50.9677 31.5231 51.4399 31.2122 51.8492 30.777C52.2585 30.3728 52.6047 29.9065 52.8251 29.3469C53.077 28.8184 53.1714 28.2278 53.1714 27.606C53.1714 26.549 52.8251 25.6474 52.164 24.9635C51.5029 24.2485 50.6214 23.9065 49.5196 23.9065C48.89 23.9065 48.2918 24.0309 47.7567 24.2796C47.19 24.5283 46.6863 24.8392 46.277 25.2744C45.8363 25.6785 45.49 26.1759 45.2382 26.7044C44.9863 27.2329 44.8604 27.8236 44.8604 28.4454C44.9234 28.9739 45.0178 29.4713 45.2067 29.9065Z" fill="#FEFCF8"/>
<path d="M61.5773 19.8965H68.4716L72.816 36.1866H68.7235L65.0087 22.3214L61.2625 36.1866H57.1699L61.5773 19.8965ZM60.9162 35.7203L65.0087 20.5182L69.0698 35.7203H72.1864L68.0939 20.3628H61.9236L57.7995 35.7203H60.9162Z" fill="#FEFCF8"/>
<path d="M78.1671 19.8965H85.0615L89.4059 36.1866H85.3133L84.0541 31.5234H79.1115L77.8208 36.1866H73.7598L78.1671 19.8965ZM78.7653 31.0571H84.4318L85.7226 35.7203H88.8392L84.7467 20.3628H78.5449L74.4209 35.7203H77.569L78.7653 31.0571ZM83.6133 27.9172H79.6152L81.63 20.5182L83.6133 27.9172ZM81.63 22.2903L80.2449 27.4509H83.0152L81.63 22.2903Z" fill="#FEFCF8"/>
<path d="M18.1648 40.1042C17.9759 39.9177 17.7555 39.8244 17.5351 39.8244C17.0629 39.8244 16.8111 40.1975 16.8111 40.6327C16.8111 41.0368 17.0629 41.4099 17.5351 41.4099C17.7555 41.4099 18.0074 41.3166 18.1963 41.099L18.5425 41.3477C18.2592 41.6897 17.9444 41.8451 17.5666 41.8451C16.7796 41.8451 16.3389 41.2544 16.3389 40.6327C16.3389 40.0109 16.7796 39.3892 17.5666 39.3892C17.9129 39.3892 18.2277 39.5135 18.5111 39.8244L18.1648 40.1042Z" fill="#FEFCF8"/>
<path d="M37.9978 39.4507V40.3833L38.8163 39.4507H39.383L38.5015 40.5077L39.4145 41.8134H38.8163L38.1238 40.8186L37.9978 40.9429V41.8134H37.4941V39.4507H37.9978Z" fill="#FEFCF8"/>
<path d="M40.9889 41.1612H40.1703L39.9815 41.7829H39.4463L40.2648 39.3892H40.8944L41.7129 41.7829H41.1777L40.9889 41.1612ZM40.5796 39.7622L40.5166 40.1353L40.3278 40.6949H40.8629L40.674 40.1353L40.5796 39.7622Z" fill="#FEFCF8"/>
<path d="M42.4363 41.8134H41.9326V39.4507H42.6882C43.2548 39.4507 43.5382 39.8548 43.5382 40.259C43.5382 40.6631 43.2548 41.0362 42.6882 41.0362H42.4048V41.8134H42.4363ZM43.0659 40.2279C43.0659 40.0724 42.94 39.8548 42.7196 39.8548H42.4363V40.6009H42.7196C42.94 40.6009 43.0659 40.3833 43.0659 40.2279Z" fill="#FEFCF8"/>
<path d="M45.7741 39.4199V41.8137H45.2704V40.5391L45.3648 39.8862H45.3334L45.1445 40.3837L44.4519 41.8137H43.8223V39.4199H44.2945V40.6945L44.2 41.3163H44.2315L44.4204 40.85L45.1445 39.4199H45.7741Z" fill="#FEFCF8"/>
<path d="M47.4739 40.85H46.7183V41.8137H46.2461V39.4199H46.7183V40.4147H47.4739V39.4199H47.9776V41.8137H47.4739V40.85Z" fill="#FEFCF8"/>
<path d="M50.7788 40.6323C50.7788 41.3784 50.2121 41.8447 49.551 41.8447C48.8899 41.8447 48.3232 41.3784 48.3232 40.6323C48.3232 39.8862 48.8899 39.4198 49.551 39.4198C50.2121 39.3887 50.7788 39.8862 50.7788 40.6323ZM49.5195 41.4095C49.8973 41.4095 50.2436 41.1608 50.2436 40.6323C50.2436 40.1038 49.8658 39.8551 49.5195 39.8551C49.1732 39.8551 48.7955 40.1038 48.7955 40.6323C48.7955 41.1608 49.1732 41.4095 49.5195 41.4095Z" fill="#FEFCF8"/>
<path d="M53.0768 39.451V41.8137H52.5731V40.5391L52.6676 39.9173H52.6361L52.4472 40.4148L51.7546 41.8137H51.125V39.451H51.6287V40.7256L51.5343 41.3474H51.5657L51.7546 40.8811L52.4787 39.4821H53.0768V39.451ZM51.6287 38.8604C51.6287 39.451 52.5731 39.451 52.6046 38.8604H52.2898C52.2583 39.078 52.0065 39.078 51.975 38.8604H51.6287Z" fill="#FEFCF8"/>
<path d="M72.7215 39.4507V40.3833L73.54 39.4507H74.1381L73.2252 40.5077L74.1381 41.8134H73.5715L72.8474 40.8186L72.7215 40.9429V41.8134H72.2178V39.4507H72.7215Z" fill="#FEFCF8"/>
<path d="M76.3102 39.4199V41.8137H75.8065V40.5391L75.901 39.8862H75.8695L75.6806 40.3837L74.988 41.8137H74.3584V39.4199H74.8306V40.6945L74.7362 41.3163H74.7676L74.9565 40.85L75.6806 39.4199H76.3102Z" fill="#FEFCF8"/>
<path d="M78.01 40.85H77.2544V41.8137H76.7822V39.4199H77.2544V40.4147H78.01V39.4199H78.5137V41.8137H78.01V40.85Z" fill="#FEFCF8"/>
<path d="M81.2836 40.6323C81.2836 41.3784 80.717 41.8447 80.0559 41.8447C79.3948 41.8447 78.8281 41.3784 78.8281 40.6323C78.8281 39.8862 79.3948 39.4198 80.0559 39.4198C80.7485 39.3887 81.2836 39.8862 81.2836 40.6323ZM80.0559 41.4095C80.4337 41.4095 80.7799 41.1608 80.7799 40.6323C80.7799 40.1038 80.4022 39.8551 80.0559 39.8551C79.7096 39.8551 79.3318 40.1038 79.3318 40.6323C79.3318 41.1608 79.7096 41.4095 80.0559 41.4095Z" fill="#FEFCF8"/>
<path d="M4.7226 38.4564C4.50223 38.2388 4.2189 38.1455 3.87261 38.1455C3.65224 38.1455 3.43188 38.1766 3.24299 38.3009C2.92818 38.5186 2.80225 38.8916 2.73929 39.0471C2.64485 38.8916 2.5504 38.5186 2.23559 38.3009C2.07819 38.1766 1.82634 38.1455 1.60597 38.1455C1.29116 38.1455 0.976349 38.2699 0.755982 38.4564C0.535614 38.674 0.315248 39.0471 0.535615 39.6688C0.97635 40.9745 2.67633 41.9072 2.73929 41.9072C2.80225 41.8761 4.50223 40.9745 4.94297 39.6688C5.16333 39.0471 4.91149 38.6429 4.7226 38.4564Z" fill="#FEFCF8"/>
<path d="M2.73872 42.0004H2.70724C2.58132 41.9693 0.881339 41.0056 0.440604 39.6688C0.220236 38.9849 0.503567 38.5497 0.692454 38.3631C0.912821 38.1455 1.25911 37.9901 1.6054 37.9901C1.79429 37.9901 2.07762 38.0212 2.29799 38.1766C2.51836 38.3631 2.64428 38.5807 2.73872 38.7362C2.83317 38.5497 2.95909 38.332 3.17946 38.1455C3.33686 38.0212 3.58871 37.959 3.87204 37.959C4.21834 37.959 4.56463 38.0833 4.78499 38.332C4.97388 38.5186 5.28869 38.9538 5.03684 39.6377C4.59611 40.9745 2.89613 41.9072 2.77021 41.9693C2.77021 42.0004 2.7702 42.0004 2.73872 42.0004ZM1.63689 38.2388C1.35356 38.2388 1.07023 38.332 0.881342 38.5186C0.723936 38.674 0.472086 39.016 0.692454 39.6066C1.10171 40.788 2.51836 41.6274 2.77021 41.7517C3.02206 41.6274 4.47018 40.788 4.84795 39.6066C5.03684 39.0471 4.81648 38.674 4.65907 38.5186C4.47018 38.332 4.18685 38.2388 3.90352 38.2388C3.65167 38.2388 3.49427 38.2699 3.33686 38.3631C3.11649 38.5186 2.99057 38.7673 2.92761 38.9538C2.89613 39.016 2.89613 39.0471 2.86465 39.0782C2.83316 39.1403 2.70724 39.1403 2.67576 39.0782C2.64428 39.0471 2.64428 38.9849 2.6128 38.9538C2.51836 38.7673 2.42391 38.5497 2.20355 38.3631C2.01466 38.2388 1.79429 38.2388 1.63689 38.2388Z" fill="#FEFCF8"/>
<path d="M97.5595 38.4564C97.3391 38.2388 97.0558 38.1455 96.7095 38.1455C96.4892 38.1455 96.2688 38.1766 96.0799 38.3009C95.7651 38.5186 95.6392 38.8916 95.5762 39.0471C95.4818 38.8916 95.3873 38.5186 95.0725 38.3009C94.9151 38.1766 94.6633 38.1455 94.4429 38.1455C94.1281 38.1455 93.8133 38.2699 93.5929 38.4564C93.3725 38.674 93.1522 39.0471 93.3725 39.6688C93.8133 40.9745 95.5132 41.9072 95.5762 41.9072C95.6392 41.8761 97.3391 40.9745 97.7799 39.6688C98.0002 39.0471 97.7799 38.6429 97.5595 38.4564Z" fill="#FEFCF8"/>
<path d="M95.6079 42.0004H95.5764C95.4505 41.9693 93.7505 41.0056 93.3097 39.6688C93.0894 38.9849 93.3727 38.5497 93.5616 38.3631C93.782 38.1455 94.1282 37.9901 94.4745 37.9901C94.6634 37.9901 94.9468 38.0212 95.1671 38.1766C95.3875 38.3631 95.5134 38.5807 95.6079 38.7362C95.7023 38.5497 95.8282 38.332 96.0486 38.1455C96.206 38.0212 96.4579 37.959 96.7412 37.959C97.0875 37.959 97.4338 38.0833 97.6541 38.332C97.843 38.5186 98.1578 38.9538 97.906 39.6377C97.4652 40.9745 95.7653 41.9072 95.6393 41.9693C95.6393 42.0004 95.6079 42.0004 95.6079 42.0004ZM94.4745 38.2388C94.1912 38.2388 93.9079 38.332 93.719 38.5186C93.5616 38.674 93.3097 39.016 93.5301 39.6066C93.9394 40.788 95.356 41.6274 95.6079 41.7517C95.8597 41.6274 97.3078 40.788 97.6856 39.6066C97.8745 39.0471 97.6541 38.674 97.4967 38.5186C97.3078 38.332 97.0245 38.2388 96.7412 38.2388C96.4893 38.2388 96.3319 38.2699 96.1745 38.3631C95.9541 38.5186 95.8282 38.7673 95.7653 38.9538C95.7338 39.016 95.7338 39.0471 95.7023 39.0782C95.6708 39.1403 95.5449 39.1403 95.5134 39.0782C95.4819 39.0471 95.4819 38.9849 95.4505 38.9538C95.356 38.7673 95.2616 38.5497 95.0412 38.3631C94.8838 38.2388 94.6319 38.2388 94.4745 38.2388Z" fill="#FEFCF8"/>
</svg>
